<svg xmlns="http://www.w3.org/2000/svg" xmlns:xlink="http://www.w3.org/1999/xlink" width="500" zoomAndPan="magnify" viewBox="0 0 375 374.999991" height="500" preserveAspectRatio="xMidYMid meet" version="1.0"><defs><g/><clipPath id="80d2cdb8fb"><path d="M 228.449219 174.621094 L 250.949219 174.621094 L 250.949219 200.113281 L 228.449219 200.113281 Z M 228.449219 174.621094 " clip-rule="nonzero"/></clipPath></defs><rect x="-37.5" width="450" fill="#ffffff" y="-37.499999" height="449.999989" fill-opacity="1"/><rect x="-37.5" width="450" fill="#ffffff" y="-37.499999" height="449.999989" fill-opacity="1"/><g fill="#38b6ff" fill-opacity="1"><g transform="translate(60.565133, 200.095504)"><g><path d="M 3.765625 0 C 3.191406 -1.695312 2.71875 -3.289062 2.34375 -4.78125 C 1.976562 -6.269531 1.703125 -7.800781 1.515625 -9.375 C 1.335938 -10.957031 1.25 -12.71875 1.25 -14.65625 C 1.25 -16.613281 1.5 -18.578125 2 -20.546875 C 2.507812 -22.515625 3.257812 -24.367188 4.25 -26.109375 C 5.238281 -27.859375 6.453125 -29.40625 7.890625 -30.75 C 9.335938 -32.101562 11.015625 -33.164062 12.921875 -33.9375 C 14.835938 -34.71875 16.957031 -35.109375 19.28125 -35.109375 C 20.394531 -35.109375 21.488281 -34.984375 22.5625 -34.734375 C 23.644531 -34.484375 24.601562 -34.117188 25.4375 -33.640625 C 26.269531 -33.160156 26.851562 -32.597656 27.1875 -31.953125 L 27.1875 -4.484375 C 27.1875 -3.597656 27.296875 -2.71875 27.515625 -1.84375 C 27.734375 -0.96875 28.046875 -0.351562 28.453125 0 L 17.875 0 C 18.28125 -0.351562 18.585938 -0.957031 18.796875 -1.8125 C 19.015625 -2.675781 19.125 -3.550781 19.125 -4.4375 L 19.125 -10.3125 L 9.53125 -10.3125 C 9.789062 -8.28125 10.265625 -6.421875 10.953125 -4.734375 C 11.648438 -3.054688 12.5625 -1.476562 13.6875 0 Z M 9.5625 -17.125 L 19.125 -17.125 L 19.171875 -27.734375 C 17.585938 -27.734375 16.234375 -27.410156 15.109375 -26.765625 C 13.992188 -26.117188 13.050781 -25.265625 12.28125 -24.203125 C 11.519531 -23.140625 10.925781 -21.992188 10.5 -20.765625 C 10.070312 -19.535156 9.757812 -18.320312 9.5625 -17.125 Z M 9.5625 -17.125 "/></g></g></g><g fill="#38b6ff" fill-opacity="1"><g transform="translate(89.363341, 200.095504)"><g><path d="M 13.46875 0.53125 C 11.363281 0.53125 9.53125 0.1875 7.96875 -0.5 C 6.40625 -1.195312 5.113281 -2.144531 4.09375 -3.34375 C 3.082031 -4.550781 2.328125 -5.941406 1.828125 -7.515625 C 1.328125 -9.097656 1.078125 -10.773438 1.078125 -12.546875 C 1.078125 -14.304688 1.335938 -15.972656 1.859375 -17.546875 C 2.390625 -19.128906 3.1875 -20.523438 4.25 -21.734375 C 5.3125 -22.941406 6.632812 -23.890625 8.21875 -24.578125 C 9.8125 -25.265625 11.679688 -25.609375 13.828125 -25.609375 C 15.640625 -25.609375 17.226562 -25.234375 18.59375 -24.484375 C 19.957031 -23.734375 21.015625 -22.765625 21.765625 -21.578125 C 22.515625 -20.398438 22.890625 -19.175781 22.890625 -17.90625 C 22.890625 -16.71875 22.570312 -15.5625 21.9375 -14.4375 C 21.3125 -13.3125 20.273438 -12.394531 18.828125 -11.6875 C 17.378906 -10.988281 15.425781 -10.640625 12.96875 -10.640625 L 8.78125 -10.640625 C 9.0625 -9.367188 9.628906 -8.375 10.484375 -7.65625 C 11.347656 -6.945312 12.453125 -6.59375 13.796875 -6.59375 C 14.679688 -6.59375 15.4375 -6.769531 16.0625 -7.125 C 16.695312 -7.488281 17.222656 -7.898438 17.640625 -8.359375 C 18.054688 -8.828125 18.347656 -9.21875 18.515625 -9.53125 C 19.117188 -8.601562 19.828125 -7.703125 20.640625 -6.828125 C 21.453125 -5.953125 22.226562 -5.179688 22.96875 -4.515625 C 21.914062 -2.835938 20.535156 -1.578125 18.828125 -0.734375 C 17.117188 0.109375 15.332031 0.53125 13.46875 0.53125 Z M 8.703125 -11.03125 C 9.847656 -11.25 10.957031 -11.625 12.03125 -12.15625 C 13.113281 -12.695312 14.003906 -13.375 14.703125 -14.1875 C 15.410156 -15 15.765625 -15.921875 15.765625 -16.953125 C 15.765625 -17.421875 15.597656 -17.882812 15.265625 -18.34375 C 14.929688 -18.800781 14.378906 -19.03125 13.609375 -19.03125 C 12.921875 -19.03125 12.1875 -18.785156 11.40625 -18.296875 C 10.632812 -17.804688 9.972656 -17.078125 9.421875 -16.109375 C 8.867188 -15.140625 8.59375 -13.953125 8.59375 -12.546875 C 8.59375 -12.015625 8.628906 -11.507812 8.703125 -11.03125 Z M 8.703125 -11.03125 "/></g></g></g><g fill="#38b6ff" fill-opacity="1"><g transform="translate(113.039469, 200.095504)"><g><path d="M 0 -18.265625 L 0 -25.078125 C 0.664062 -25.367188 1.421875 -25.773438 2.265625 -26.296875 C 3.117188 -26.828125 3.988281 -27.4375 4.875 -28.125 C 5.757812 -28.820312 6.582031 -29.546875 7.34375 -30.296875 C 8.101562 -31.046875 8.738281 -31.78125 9.25 -32.5 L 9.421875 -32.5 L 9.421875 -25.078125 L 14.828125 -25.078125 L 14.828125 -18.265625 L 9.421875 -18.265625 L 9.421875 -10.140625 C 9.421875 -8.515625 9.660156 -7.425781 10.140625 -6.875 C 10.617188 -6.332031 11.300781 -6.0625 12.1875 -6.0625 C 12.726562 -6.0625 13.210938 -6.164062 13.640625 -6.375 C 14.078125 -6.59375 14.460938 -6.890625 14.796875 -7.265625 C 14.910156 -6.191406 15.097656 -5.15625 15.359375 -4.15625 C 15.628906 -3.15625 15.859375 -2.25 16.046875 -1.4375 C 15.453125 -0.863281 14.617188 -0.390625 13.546875 -0.015625 C 12.472656 0.347656 11.363281 0.53125 10.21875 0.53125 C 7.539062 0.53125 5.519531 -0.253906 4.15625 -1.828125 C 2.789062 -3.398438 2.109375 -5.632812 2.109375 -8.53125 L 2.109375 -18.265625 Z M 0 -18.265625 "/></g></g></g><g fill="#38b6ff" fill-opacity="1"><g transform="translate(130.160786, 200.095504)"><g><path d="M -1.4375 -32.359375 C -0.550781 -32.398438 0.394531 -32.554688 1.40625 -32.828125 C 2.425781 -33.109375 3.429688 -33.457031 4.421875 -33.875 C 5.410156 -34.289062 6.34375 -34.71875 7.21875 -35.15625 C 8.09375 -35.601562 8.828125 -36.003906 9.421875 -36.359375 L 9.421875 -17.375 L 13.078125 -24.6875 C 13.554688 -24.945312 14.0625 -25.164062 14.59375 -25.34375 C 15.132812 -25.519531 15.738281 -25.609375 16.40625 -25.609375 C 18.675781 -25.609375 20.46875 -24.945312 21.78125 -23.625 C 23.09375 -22.300781 23.75 -20.289062 23.75 -17.59375 L 23.75 -4.484375 C 23.75 -3.597656 23.859375 -2.71875 24.078125 -1.84375 C 24.296875 -0.96875 24.609375 -0.351562 25.015625 0 L 15.15625 0 C 15.5625 -0.351562 15.867188 -0.957031 16.078125 -1.8125 C 16.296875 -2.675781 16.40625 -3.550781 16.40625 -4.4375 L 16.40625 -15.796875 C 16.40625 -16.941406 16.109375 -17.828125 15.515625 -18.453125 C 14.921875 -19.078125 14.179688 -19.390625 13.296875 -19.390625 C 12.171875 -19.390625 11.304688 -19.03125 10.703125 -18.3125 C 10.109375 -17.59375 9.679688 -16.816406 9.421875 -15.984375 L 9.421875 -4.484375 C 9.421875 -3.597656 9.523438 -2.71875 9.734375 -1.84375 C 9.953125 -0.96875 10.265625 -0.351562 10.671875 0 L 0.828125 0 C 1.234375 -0.351562 1.539062 -0.957031 1.75 -1.8125 C 1.96875 -2.675781 2.078125 -3.550781 2.078125 -4.4375 L 2.078125 -27.046875 C 2.078125 -27.304688 2.050781 -27.710938 2 -28.265625 C 1.957031 -28.816406 1.828125 -29.390625 1.609375 -29.984375 C 1.398438 -30.585938 1.054688 -31.101562 0.578125 -31.53125 C 0.0976562 -31.957031 -0.570312 -32.171875 -1.4375 -32.171875 Z M -1.4375 -32.359375 "/></g></g></g><g fill="#38b6ff" fill-opacity="1"><g transform="translate(155.878587, 200.095504)"><g><path d="M 13.46875 0.53125 C 11.363281 0.53125 9.53125 0.1875 7.96875 -0.5 C 6.40625 -1.195312 5.113281 -2.144531 4.09375 -3.34375 C 3.082031 -4.550781 2.328125 -5.941406 1.828125 -7.515625 C 1.328125 -9.097656 1.078125 -10.773438 1.078125 -12.546875 C 1.078125 -14.304688 1.335938 -15.972656 1.859375 -17.546875 C 2.390625 -19.128906 3.1875 -20.523438 4.25 -21.734375 C 5.3125 -22.941406 6.632812 -23.890625 8.21875 -24.578125 C 9.8125 -25.265625 11.679688 -25.609375 13.828125 -25.609375 C 15.640625 -25.609375 17.226562 -25.234375 18.59375 -24.484375 C 19.957031 -23.734375 21.015625 -22.765625 21.765625 -21.578125 C 22.515625 -20.398438 22.890625 -19.175781 22.890625 -17.90625 C 22.890625 -16.71875 22.570312 -15.5625 21.9375 -14.4375 C 21.3125 -13.3125 20.273438 -12.394531 18.828125 -11.6875 C 17.378906 -10.988281 15.425781 -10.640625 12.96875 -10.640625 L 8.78125 -10.640625 C 9.0625 -9.367188 9.628906 -8.375 10.484375 -7.65625 C 11.347656 -6.945312 12.453125 -6.59375 13.796875 -6.59375 C 14.679688 -6.59375 15.4375 -6.769531 16.0625 -7.125 C 16.695312 -7.488281 17.222656 -7.898438 17.640625 -8.359375 C 18.054688 -8.828125 18.347656 -9.21875 18.515625 -9.53125 C 19.117188 -8.601562 19.828125 -7.703125 20.640625 -6.828125 C 21.453125 -5.953125 22.226562 -5.179688 22.96875 -4.515625 C 21.914062 -2.835938 20.535156 -1.578125 18.828125 -0.734375 C 17.117188 0.109375 15.332031 0.53125 13.46875 0.53125 Z M 8.703125 -11.03125 C 9.847656 -11.25 10.957031 -11.625 12.03125 -12.15625 C 13.113281 -12.695312 14.003906 -13.375 14.703125 -14.1875 C 15.410156 -15 15.765625 -15.921875 15.765625 -16.953125 C 15.765625 -17.421875 15.597656 -17.882812 15.265625 -18.34375 C 14.929688 -18.800781 14.378906 -19.03125 13.609375 -19.03125 C 12.921875 -19.03125 12.1875 -18.785156 11.40625 -18.296875 C 10.632812 -17.804688 9.972656 -17.078125 9.421875 -16.109375 C 8.867188 -15.140625 8.59375 -13.953125 8.59375 -12.546875 C 8.59375 -12.015625 8.628906 -11.507812 8.703125 -11.03125 Z M 8.703125 -11.03125 "/></g></g></g><g fill="#38b6ff" fill-opacity="1"><g transform="translate(179.554715, 200.095504)"><g><path d="M -1.4375 -21.609375 C -0.550781 -21.648438 0.394531 -21.804688 1.40625 -22.078125 C 2.425781 -22.359375 3.429688 -22.707031 4.421875 -23.125 C 5.410156 -23.539062 6.34375 -23.96875 7.21875 -24.40625 C 8.09375 -24.851562 8.828125 -25.253906 9.421875 -25.609375 L 9.421875 -18.59375 C 9.585938 -19.382812 9.851562 -20.191406 10.21875 -21.015625 C 10.59375 -21.835938 11.0625 -22.59375 11.625 -23.28125 C 12.1875 -23.976562 12.847656 -24.539062 13.609375 -24.96875 C 14.378906 -25.394531 15.226562 -25.609375 16.15625 -25.609375 C 16.875 -25.609375 17.570312 -25.472656 18.25 -25.203125 C 18.9375 -24.929688 19.398438 -24.640625 19.640625 -24.328125 C 19.296875 -23.222656 18.96875 -22.035156 18.65625 -20.765625 C 18.351562 -19.503906 18.101562 -18.28125 17.90625 -17.09375 C 17.625 -17.59375 17.039062 -18.023438 16.15625 -18.390625 C 15.269531 -18.765625 14.363281 -18.953125 13.4375 -18.953125 C 10.757812 -18.953125 9.421875 -17.9375 9.421875 -15.90625 L 9.421875 -4.484375 C 9.421875 -3.597656 9.523438 -2.71875 9.734375 -1.84375 C 9.953125 -0.96875 10.265625 -0.351562 10.671875 0 L 0.828125 0 C 1.234375 -0.351562 1.539062 -0.957031 1.75 -1.8125 C 1.96875 -2.675781 2.078125 -3.550781 2.078125 -4.4375 L 2.078125 -16.296875 C 2.078125 -16.566406 2.050781 -16.972656 2 -17.515625 C 1.957031 -18.066406 1.828125 -18.640625 1.609375 -19.234375 C 1.398438 -19.835938 1.054688 -20.351562 0.578125 -20.78125 C 0.0976562 -21.207031 -0.570312 -21.421875 -1.4375 -21.421875 Z M -1.4375 -21.609375 "/></g></g></g><g fill="#38b6ff" fill-opacity="1"><g transform="translate(200.616078, 200.095504)"><g><path d="M 7.875 0 L 0 -25.078125 L 7.53125 -25.078125 L 12.359375 -9.75 C 12.785156 -10.53125 13.21875 -11.382812 13.65625 -12.3125 C 14.101562 -13.25 14.476562 -14.203125 14.78125 -15.171875 C 15.082031 -16.140625 15.234375 -17.050781 15.234375 -17.90625 C 15.234375 -18.601562 15.085938 -19.257812 14.796875 -19.875 C 14.503906 -20.5 14.078125 -21.015625 13.515625 -21.421875 C 12.960938 -21.828125 12.253906 -22.03125 11.390625 -22.03125 L 11.390625 -22.21875 C 12.679688 -22.550781 13.953125 -23.03125 15.203125 -23.65625 C 16.460938 -24.289062 17.640625 -24.941406 18.734375 -25.609375 C 19.910156 -25.234375 20.804688 -24.5 21.421875 -23.40625 C 22.046875 -22.320312 22.359375 -20.984375 22.359375 -19.390625 C 22.359375 -17.953125 22.097656 -16.441406 21.578125 -14.859375 C 21.066406 -13.285156 20.398438 -11.675781 19.578125 -10.03125 C 18.753906 -8.382812 17.867188 -6.71875 16.921875 -5.03125 C 15.984375 -3.351562 15.082031 -1.675781 14.21875 0 Z M 7.875 0 "/></g></g></g><g fill="#38b6ff" fill-opacity="1"><g transform="translate(224.044483, 200.095504)"><g/></g></g><g fill="#38b6ff" fill-opacity="1"><g transform="translate(234.790087, 200.095504)"><g/></g></g><g fill="#38b6ff" fill-opacity="1"><g transform="translate(245.535691, 200.095504)"><g/></g></g><g fill="#38b6ff" fill-opacity="1"><g transform="translate(256.294261, 200.095504)"><g><path d="M 1.71875 -16.296875 C 1.71875 -16.566406 1.691406 -16.972656 1.640625 -17.515625 C 1.597656 -18.066406 1.46875 -18.640625 1.25 -19.234375 C 1.039062 -19.835938 0.695312 -20.351562 0.21875 -20.78125 C -0.257812 -21.207031 -0.929688 -21.421875 -1.796875 -21.421875 L -1.796875 -21.609375 C -0.910156 -21.648438 0.0351562 -21.804688 1.046875 -22.078125 C 2.066406 -22.359375 3.070312 -22.707031 4.0625 -23.125 C 5.050781 -23.539062 5.984375 -23.96875 6.859375 -24.40625 C 7.734375 -24.851562 8.46875 -25.253906 9.0625 -25.609375 L 9.0625 -9.28125 C 9.0625 -8.132812 9.359375 -7.25 9.953125 -6.625 C 10.554688 -6.007812 11.300781 -5.703125 12.1875 -5.703125 C 13.300781 -5.703125 14.15625 -6.054688 14.75 -6.765625 C 15.351562 -7.484375 15.785156 -8.25 16.046875 -9.0625 L 16.046875 -16.296875 C 16.046875 -16.566406 16.019531 -16.972656 15.96875 -17.515625 C 15.925781 -18.066406 15.796875 -18.640625 15.578125 -19.234375 C 15.367188 -19.835938 15.023438 -20.351562 14.546875 -20.78125 C 14.066406 -21.207031 13.398438 -21.421875 12.546875 -21.421875 L 12.546875 -21.609375 C 13.421875 -21.648438 14.363281 -21.804688 15.375 -22.078125 C 16.394531 -22.359375 17.398438 -22.707031 18.390625 -23.125 C 19.390625 -23.539062 20.320312 -23.96875 21.1875 -24.40625 C 22.0625 -24.851562 22.796875 -25.253906 23.390625 -25.609375 L 23.390625 -17.90625 C 23.390625 -16.289062 23.390625 -14.691406 23.390625 -13.109375 C 23.390625 -11.535156 23.390625 -9.734375 23.390625 -7.703125 C 23.390625 -7.035156 23.445312 -6.363281 23.5625 -5.6875 C 23.6875 -5.019531 23.945312 -4.46875 24.34375 -4.03125 C 24.738281 -3.59375 25.363281 -3.375 26.21875 -3.375 L 26.21875 -3.1875 C 25.53125 -2.832031 24.800781 -2.4375 24.03125 -2 C 23.269531 -1.570312 22.535156 -1.164062 21.828125 -0.78125 C 21.128906 -0.40625 20.507812 -0.09375 19.96875 0.15625 C 19.4375 0.40625 19.0625 0.53125 18.84375 0.53125 C 18.25 0.53125 17.742188 0.28125 17.328125 -0.21875 C 16.910156 -0.71875 16.59375 -1.34375 16.375 -2.09375 C 16.15625 -2.84375 16.046875 -3.578125 16.046875 -4.296875 L 16.046875 -7.703125 L 12.390625 -0.390625 C 11.941406 -0.128906 11.441406 0.0859375 10.890625 0.265625 C 10.335938 0.441406 9.726562 0.53125 9.0625 0.53125 C 6.789062 0.53125 5 -0.128906 3.6875 -1.453125 C 2.375 -2.773438 1.71875 -4.785156 1.71875 -7.484375 Z M 1.71875 -16.296875 "/></g></g></g><g fill="#38b6ff" fill-opacity="1"><g transform="translate(281.797139, 200.095504)"><g><path d="M 1.71875 -27.015625 C 1.71875 -27.273438 1.691406 -27.679688 1.640625 -28.234375 C 1.597656 -28.785156 1.46875 -29.359375 1.25 -29.953125 C 1.039062 -30.546875 0.695312 -31.054688 0.21875 -31.484375 C -0.257812 -31.921875 -0.929688 -32.140625 -1.796875 -32.140625 L -1.796875 -32.3125 C -0.910156 -32.363281 0.0351562 -32.523438 1.046875 -32.796875 C 2.066406 -33.078125 3.070312 -33.425781 4.0625 -33.84375 C 5.050781 -34.257812 5.984375 -34.6875 6.859375 -35.125 C 7.734375 -35.570312 8.46875 -35.972656 9.0625 -36.328125 L 9.0625 -10.109375 C 9.0625 -8.484375 9.300781 -7.394531 9.78125 -6.84375 C 10.257812 -6.289062 10.941406 -6.015625 11.828125 -6.015625 C 12.367188 -6.015625 12.851562 -6.117188 13.28125 -6.328125 C 13.71875 -6.546875 14.101562 -6.847656 14.4375 -7.234375 C 14.5625 -6.160156 14.753906 -5.117188 15.015625 -4.109375 C 15.273438 -3.109375 15.5 -2.203125 15.6875 -1.390625 C 15.09375 -0.816406 14.257812 -0.351562 13.1875 0 C 12.113281 0.351562 11.003906 0.53125 9.859375 0.53125 C 7.179688 0.53125 5.160156 -0.25 3.796875 -1.8125 C 2.429688 -3.375 1.75 -5.597656 1.75 -8.484375 C 1.75 -8.484375 1.75 -8.800781 1.75 -9.4375 C 1.75 -10.070312 1.75 -10.914062 1.75 -11.96875 C 1.75 -13.019531 1.75 -14.179688 1.75 -15.453125 C 1.75 -16.734375 1.742188 -18.019531 1.734375 -19.3125 C 1.722656 -20.601562 1.71875 -21.800781 1.71875 -22.90625 C 1.71875 -24.019531 1.71875 -24.945312 1.71875 -25.6875 C 1.71875 -26.425781 1.71875 -26.867188 1.71875 -27.015625 Z M 1.71875 -27.015625 "/></g></g></g><g fill="#38b6ff" fill-opacity="1"><g transform="translate(297.4857, 200.095504)"><g><path d="M 0 -18.265625 L 0 -25.078125 C 0.664062 -25.367188 1.421875 -25.773438 2.265625 -26.296875 C 3.117188 -26.828125 3.988281 -27.4375 4.875 -28.125 C 5.757812 -28.820312 6.582031 -29.546875 7.34375 -30.296875 C 8.101562 -31.046875 8.738281 -31.78125 9.25 -32.5 L 9.421875 -32.5 L 9.421875 -25.078125 L 14.828125 -25.078125 L 14.828125 -18.265625 L 9.421875 -18.265625 L 9.421875 -10.140625 C 9.421875 -8.515625 9.660156 -7.425781 10.140625 -6.875 C 10.617188 -6.332031 11.300781 -6.0625 12.1875 -6.0625 C 12.726562 -6.0625 13.210938 -6.164062 13.640625 -6.375 C 14.078125 -6.59375 14.460938 -6.890625 14.796875 -7.265625 C 14.910156 -6.191406 15.097656 -5.15625 15.359375 -4.15625 C 15.628906 -3.15625 15.859375 -2.25 16.046875 -1.4375 C 15.453125 -0.863281 14.617188 -0.390625 13.546875 -0.015625 C 12.472656 0.347656 11.363281 0.53125 10.21875 0.53125 C 7.539062 0.53125 5.519531 -0.253906 4.15625 -1.828125 C 2.789062 -3.398438 2.109375 -5.632812 2.109375 -8.53125 L 2.109375 -18.265625 Z M 0 -18.265625 "/></g></g></g><g clip-path="url(#80d2cdb8fb)"><path fill="#74c0fc" d="M 235.683594 181.789062 L 235.683594 184.179688 L 243.71875 184.179688 L 243.71875 181.789062 C 243.71875 179.589844 241.917969 177.804688 239.699219 177.804688 C 237.480469 177.804688 235.683594 179.589844 235.683594 181.789062 Z M 232.46875 184.179688 L 232.46875 181.789062 C 232.46875 177.832031 235.707031 174.621094 239.699219 174.621094 C 243.691406 174.621094 246.933594 177.832031 246.933594 181.789062 L 246.933594 184.179688 L 247.734375 184.179688 C 249.507812 184.179688 250.949219 185.605469 250.949219 187.363281 L 250.949219 196.921875 C 250.949219 198.675781 249.507812 200.105469 247.734375 200.105469 L 231.664062 200.105469 C 229.890625 200.105469 228.449219 198.675781 228.449219 196.921875 L 228.449219 187.363281 C 228.449219 185.605469 229.890625 184.179688 231.664062 184.179688 Z M 232.46875 184.179688 " fill-opacity="1" fill-rule="nonzero"/></g></svg>